<svg width="80" height="80" viewBox="0 0 80 80" fill="none" xmlns="http://www.w3.org/2000/svg">
<path d="M51.6667 20H28.3333C26.124 20.0026 24.0059 20.8815 22.4437 22.4437C20.8815 24.0059 20.0026 26.124 20 28.3333L20 51.6667C20.0026 53.876 20.8815 55.9941 22.4437 57.5563C24.0059 59.1185 26.124 59.9974 28.3333 60H51.6667C53.876 59.9974 55.9941 59.1185 57.5563 57.5563C59.1185 55.9941 59.9974 53.876 60 51.6667V28.3333C59.9974 26.124 59.1185 24.0059 57.5563 22.4437C55.9941 20.8815 53.876 20.0026 51.6667 20V20ZM56.6667 28.3333H45V23.3333H51.6667C52.9927 23.3333 54.2645 23.8601 55.2022 24.7978C56.1399 25.7355 56.6667 27.0073 56.6667 28.3333ZM38.3333 23.3333H41.6667V31.6667C41.6667 32.1087 41.4911 32.5326 41.1785 32.8452C40.8659 33.1577 40.442 33.3333 40 33.3333C39.558 33.3333 39.134 33.1577 38.8215 32.8452C38.5089 32.5326 38.3333 32.1087 38.3333 31.6667V23.3333ZM28.3333 23.3333H35V28.3333H23.3333C23.3333 27.0073 23.8601 25.7355 24.7978 24.7978C25.7355 23.8601 27.0073 23.3333 28.3333 23.3333ZM51.6667 56.6667H28.3333C27.0073 56.6667 25.7355 56.1399 24.7978 55.2022C23.8601 54.2645 23.3333 52.9927 23.3333 51.6667V31.6667H35C35 32.9927 35.5268 34.2645 36.4645 35.2022C37.4021 36.1399 38.6739 36.6667 40 36.6667C41.3261 36.6667 42.5979 36.1399 43.5355 35.2022C44.4732 34.2645 45 32.9927 45 31.6667H56.6667V51.6667C56.6667 52.9927 56.1399 54.2645 55.2022 55.2022C54.2645 56.1399 52.9927 56.6667 51.6667 56.6667ZM53.3333 51.6667C53.3333 52.1087 53.1577 52.5326 52.8452 52.8452C52.5326 53.1577 52.1087 53.3333 51.6667 53.3333H46.6667C46.2246 53.3333 45.8007 53.1577 45.4882 52.8452C45.1756 52.5326 45 52.1087 45 51.6667C45 51.2246 45.1756 50.8007 45.4882 50.4882C45.8007 50.1756 46.2246 50 46.6667 50H51.6667C52.1087 50 52.5326 50.1756 52.8452 50.4882C53.1577 50.8007 53.3333 51.2246 53.3333 51.6667Z" fill="#EAEAEA"/>
</svg>
