<svg width="54" height="52" viewBox="0 0 54 52" fill="none" xmlns="http://www.w3.org/2000/svg">
<path fill-rule="evenodd" clip-rule="evenodd" d="M19.1554 39.9086C18.4058 39.6264 17.6861 39.317 17.0003 38.986C16.098 39.9497 14.8629 40.7655 13.3685 41.3064C9.1536 42.832 -0.623843 44.3861 2.9124 38.5408C-4.19012 34.5605 3.40404 31.8123 7.63644 30.2806L7.71981 30.2505C8.13911 30.0987 8.56303 29.9743 8.98803 29.8763C9.19541 28.9227 8.6033 26.5236 7.851 23.4755C5.60649 14.3815 1.93608 -0.490013 13.818 0.0124083C28.5526 4.90306 38.6056 20.7853 42.1028 29.612C42.7975 29.5529 43.5172 29.5579 44.2491 29.6343C48.8023 30.1095 58.4798 31.2401 51.6135 36.4665C53.9128 43.3629 49.0382 42.5846 44.726 41.8962C43.9469 41.7718 43.1861 41.6503 42.4894 41.5776C40.7235 41.3932 39.1465 40.8203 37.9059 39.9955C36.3569 40.6244 34.5528 41.1149 32.5812 41.3963C32.7217 42.2184 32.708 43.0873 32.5163 43.9687C31.6902 47.7674 27.1047 55.9395 23.9881 49.7633C17.2814 54.1898 17.6255 45.6005 18.4516 41.8018C18.5978 41.1293 18.8378 40.4946 19.1554 39.9086ZM9.66301 27.2158C9.00827 30.5311 15.1849 36.046 23.5076 37.4458C31.8304 38.8455 39.1475 35.6001 39.8022 32.2848C40.457 28.9694 30.2081 6.94208 13.3581 1.13097C2.98234 0.544807 6.44328 13.6092 8.55969 21.5982C9.26906 24.276 9.82738 26.3835 9.66301 27.2158Z" fill="#D5D5D5"/>
<ellipse cx="4.56684" cy="6.69791" rx="4.56684" ry="6.69791" transform="matrix(0.962828 -0.270116 0.368182 0.929754 18.0771 10.3347)" fill="#D5D5D5"/>
<ellipse cx="4.56684" cy="6.69791" rx="4.56684" ry="6.69791" transform="matrix(0.962828 -0.270116 0.368182 0.929754 18.0771 10.3347)" fill="#D5D5D5"/>
<ellipse cx="4.80588" cy="6.69791" rx="4.80588" ry="6.69791" transform="matrix(0.962828 -0.270116 0.368182 0.929754 9.76953 12.6045)" fill="#D5D5D5"/>
<ellipse cx="4.80588" cy="6.69791" rx="4.80588" ry="6.69791" transform="matrix(0.962828 -0.270116 0.368182 0.929754 9.76953 12.6045)" fill="#D5D5D5"/>
</svg>
