<svg width="80" height="80" viewBox="0 0 80 80" fill="none" xmlns="http://www.w3.org/2000/svg">
<g clip-path="url(#clip0_147_57)">
<path d="M41.7142 36.842C43.692 36.842 45.6254 36.2555 47.2699 35.1567C48.9144 34.0579 50.1962 32.4961 50.953 30.6688C51.7099 28.8416 51.9079 26.8309 51.5221 24.8911C51.1362 22.9513 50.1838 21.1694 48.7853 19.7709C47.3868 18.3724 45.6049 17.42 43.6651 17.0341C41.7253 16.6483 39.7147 16.8463 37.8874 17.6032C36.0601 18.3601 34.4984 19.6418 33.3995 21.2863C32.3007 22.9308 31.7142 24.8642 31.7142 26.842C31.7169 29.4933 32.7713 32.0353 34.6461 33.9101C36.5209 35.7849 39.0629 36.8393 41.7142 36.842ZM41.7142 20.1753C43.0328 20.1753 44.3217 20.5663 45.418 21.2989C46.5144 22.0314 47.3688 23.0726 47.8734 24.2908C48.378 25.5089 48.51 26.8494 48.2528 28.1426C47.9956 29.4358 47.3606 30.6237 46.4283 31.556C45.4959 32.4884 44.308 33.1233 43.0148 33.3806C41.7216 33.6378 40.3812 33.5058 39.163 33.0012C37.9448 32.4966 36.9036 31.6421 36.1711 30.5458C35.4386 29.4495 35.0476 28.1605 35.0476 26.842C35.0476 25.0739 35.7499 23.3782 37.0002 22.1279C38.2504 20.8777 39.9461 20.1753 41.7142 20.1753Z" fill="#EAEAEA"/>
<path d="M41.7142 40.1765C37.7373 40.1809 33.9246 41.7626 31.1125 44.5747C28.3004 47.3868 26.7186 51.1996 26.7142 55.1765C26.7142 55.6185 26.8898 56.0424 27.2024 56.355C27.5149 56.6675 27.9389 56.8431 28.3809 56.8431C28.8229 56.8431 29.2469 56.6675 29.5594 56.355C29.872 56.0424 30.0476 55.6185 30.0476 55.1765C30.0476 52.0823 31.2767 49.1148 33.4647 46.9269C35.6526 44.7389 38.62 43.5098 41.7142 43.5098C44.8084 43.5098 47.7759 44.7389 49.9638 46.9269C52.1517 49.1148 53.3809 52.0823 53.3809 55.1765C53.3809 55.6185 53.5565 56.0424 53.8691 56.355C54.1816 56.6675 54.6055 56.8431 55.0476 56.8431C55.4896 56.8431 55.9135 56.6675 56.2261 56.355C56.5386 56.0424 56.7142 55.6185 56.7142 55.1765C56.7098 51.1996 55.1281 47.3868 52.316 44.5747C49.5039 41.7626 45.6911 40.1809 41.7142 40.1765Z" fill="#EAEAEA"/>
</g>
<defs>
<clipPath id="clip0_147_57">
<rect width="40" height="40" fill="white" transform="translate(21.7142 16.8421)"/>
</clipPath>
</defs>
</svg>
